<svg width="12" height="15" viewBox="0 0 12 15" fill="none" xmlns="http://www.w3.org/2000/svg">
<path fill-rule="evenodd" clip-rule="evenodd" d="M5.75322 0.643158C5.69906 0.666621 5.6188 0.719933 5.57488 0.761626C5.42127 0.907412 5.40265 0.973412 5.38749 1.42534L5.37342 1.84447L5.11589 1.89643C4.61906 1.99667 4.08287 2.22449 3.6151 2.53412C3.28563 2.75218 2.7194 3.32148 2.49349 3.66178C2.19534 4.11095 1.98195 4.61237 1.86368 5.14181C1.81332 5.36721 1.80485 5.54329 1.78639 6.74539C1.76349 8.23737 1.74858 8.39053 1.57492 8.91569C1.36164 9.56061 1.04216 10.0646 0.511769 10.5929C0.05199 11.0509 0 11.1488 0 11.5562C0 11.8058 0.00866499 11.8551 0.0769721 11.9942C0.225824 12.2973 0.519562 12.5195 0.854852 12.5826C1.07305 12.6237 10.8897 12.6217 11.1144 12.5806C11.4374 12.5214 11.7312 12.2963 11.8796 11.9942C11.9479 11.8551 11.9566 11.8058 11.9566 11.5562C11.9566 11.1517 11.9006 11.0439 11.4701 10.6191C11.1044 10.2583 10.9396 10.0551 10.7427 9.72199C10.4976 9.3075 10.33 8.85464 10.2395 8.36304C10.1996 8.14552 10.1866 7.84444 10.17 6.74539C10.1519 5.54147 10.1435 5.36755 10.093 5.14181C9.90566 4.30474 9.54879 3.65872 8.93411 3.04401C8.32717 2.43701 7.63242 2.05617 6.84067 1.89643L6.58314 1.84447L6.56908 1.42534C6.55391 0.973412 6.53529 0.907468 6.38168 0.76157C6.21665 0.604812 5.95541 0.555579 5.75322 0.643158ZM3.7839 13.2433C3.7839 13.3366 3.9597 13.757 4.07693 13.9441C4.56079 14.7163 5.49915 15.1319 6.3767 14.9626C6.99405 14.8435 7.50858 14.501 7.85757 13.9767C7.98175 13.7902 8.16973 13.356 8.17173 13.2512C8.1726 13.2047 8.04978 13.2019 5.97828 13.2019C4.06557 13.2019 3.7839 13.2073 3.7839 13.2433Z" fill="#AFB6C6"/>
</svg>
